<?xml version="1.0" encoding="UTF-8"?>
<svg width="24" height="24" viewBox="0 0 24 24" fill="none" xmlns="http://www.w3.org/2000/svg">
  <path d="M12 2C6.47715 2 2 6.47715 2 12C2 17.5228 6.47715 22 12 22C17.5228 22 22 17.5228 22 12C22 6.47715 17.5228 2 12 2ZM12 20C7.58172 20 4 16.4183 4 12C4 7.58172 7.58172 4 12 4C16.4183 4 20 7.58172 20 12C20 16.4183 16.4183 20 12 20Z" fill="currentColor" fill-opacity="0.3"/>
  <path d="M12 4C7.58172 4 4 7.58172 4 12H2C2 6.47715 6.47715 2 12 2V4Z" fill="currentColor">
    <animateTransform 
      attributeName="transform" 
      attributeType="XML" 
      type="rotate"
      dur="1s" 
      from="0 12 12"
      to="360 12 12" 
      repeatCount="indefinite" />
  </path>
</svg>
